<svg width="26" height="26" viewBox="0 0 26 26" fill="none" xmlns="http://www.w3.org/2000/svg">
<rect x="2" y="6" width="22" height="14" rx="4" stroke="#047AFF" stroke-width="2"/>
<path fill-rule="evenodd" clip-rule="evenodd" d="M9.06533 16.0333C9.63779 16.0333 10.1154 15.8738 10.4981 15.5548C10.8842 15.2497 11.0806 14.835 11.0872 14.3107C11.0872 13.9945 10.9924 13.7018 10.8027 13.4327C10.5997 13.172 10.3001 12.9986 9.90405 12.9126V12.896C10.1137 12.8128 10.2901 12.7198 10.4332 12.6172C10.5764 12.5201 10.6862 12.4175 10.7627 12.3093C10.9125 12.0818 10.9841 11.8433 10.9774 11.5936C10.9774 11.1054 10.796 10.7129 10.4332 10.4161C10.0738 10.122 9.53628 9.97222 8.8207 9.96667H6V16.0333H9.06533ZM8.69584 12.5215H7.10327V10.7864H8.69584C9.09856 10.7919 9.39478 10.8738 9.58449 11.0319C9.77753 11.2011 9.87405 11.4078 9.87405 11.6519C9.87405 11.896 9.77753 12.0985 9.58449 12.2594C9.39478 12.4341 9.09856 12.5215 8.69584 12.5215ZM7.10327 15.1637H8.80068C9.21006 15.1581 9.5096 15.0652 9.69932 14.8849C9.88903 14.7074 9.98388 14.4965 9.98388 14.2524C9.98388 14.0028 9.88903 13.7892 9.69932 13.6116C9.5096 13.4369 9.21006 13.3467 8.80068 13.3412H7.10327V15.1637ZM14.3727 16.0334V15.2137H13.9833C13.7304 15.2192 13.6072 15.1124 13.6139 14.8933V12.3759H14.3727V11.7143H13.6139V10.3994H12.5705V11.7143H12.0513V12.3759H12.5705V14.9682C12.5705 15.3094 12.6903 15.5701 12.9299 15.7504C13.1629 15.9391 13.4625 16.0334 13.8286 16.0334H14.3727ZM16.8997 13.4619V16.0333H15.8563V11.7143H16.8997V12.172H16.9197C17.2625 11.8308 17.7118 11.6602 18.2676 11.6602C18.697 11.6602 19.0897 11.7864 19.4459 12.0388C19.7986 12.294 19.9834 12.6685 20 13.1623V16.0333H18.9566V13.4619C18.9566 13.1595 18.8601 12.9293 18.667 12.7712C18.4773 12.6103 18.2327 12.5298 17.9332 12.5298C17.6336 12.5298 17.3873 12.6103 17.1943 12.7712C16.9979 12.9293 16.8997 13.1595 16.8997 13.4619Z" fill="#FFA800"/>
</svg>
